<svg width="323" height="185" viewBox="0 0 323 185" fill="none" xmlns="http://www.w3.org/2000/svg">
<g clip-path="url(#clip0_176_1293)">
<path d="M76.8716 151.308C86.9941 151.308 95.2 143.139 95.2 133.061C95.2 122.983 86.9941 114.813 76.8716 114.813C66.7491 114.813 58.5432 122.983 58.5432 133.061C58.5432 143.139 66.7491 151.308 76.8716 151.308Z" fill="#E4E4E4"/>
<path opacity="0.2" d="M63.3386 120.873C61.6289 124.854 61.397 129.311 62.6843 133.447C63.9715 137.583 66.694 141.129 70.3652 143.451C74.0365 145.772 78.4173 146.718 82.7249 146.12C87.0324 145.522 90.986 143.419 93.8791 140.185C92.8347 142.618 91.2716 144.795 89.2981 146.567C87.3246 148.338 84.9879 149.661 82.4498 150.444C79.9117 151.227 77.233 151.452 74.5992 151.102C71.9654 150.752 69.4396 149.836 67.1966 148.417C64.9537 146.999 63.0473 145.112 61.6095 142.887C60.1717 140.663 59.237 138.153 58.87 135.533C58.503 132.913 58.7126 130.245 59.4842 127.713C60.2558 125.182 61.5709 122.848 63.3386 120.873Z" fill="black"/>
<path d="M76.9221 133.061H76.9721L77.8786 184.796H75.9651L76.9221 133.061Z" fill="#3F3D56"/>
<path d="M39.7878 117.279C60.1966 117.279 76.7412 100.807 76.7412 80.4882C76.7412 60.1693 60.1966 43.6976 39.7878 43.6976C19.3791 43.6976 2.83447 60.1693 2.83447 80.4882C2.83447 100.807 19.3791 117.279 39.7878 117.279Z" fill="#E4E4E4"/>
<path opacity="0.2" d="M12.5028 55.915C9.05592 63.9424 8.58833 72.9286 11.1836 81.2677C13.7789 89.6068 19.2679 96.7554 26.6699 101.436C34.0718 106.117 42.9043 108.025 51.5891 106.819C60.2739 105.613 68.245 101.372 74.078 94.8531C71.9724 99.7576 68.8209 104.148 64.842 107.719C60.863 111.291 56.1517 113.958 51.0345 115.537C45.9173 117.116 40.5165 117.568 35.2063 116.862C29.8961 116.156 24.8035 114.31 20.2813 111.45C15.7591 108.59 11.9155 104.786 9.01665 100.301C6.11786 95.8152 4.23323 90.7559 3.49333 85.4733C2.75343 80.1907 3.17595 74.8111 4.73163 69.7073C6.28731 64.6034 8.93895 59.8973 12.5028 55.915Z" fill="black"/>
<path d="M39.8894 80.4881H39.9912L41.8186 184.796H37.9607L39.8894 80.4881Z" fill="#3F3D56"/>
<path d="M283.422 130.807H114.044V180.797H283.422V130.807Z" fill="#F0F0F0"/>
<path d="M208.608 141.138H188.859V180.797H208.608V141.138Z" fill="#CACACA"/>
<path d="M273.547 71.8188H123.919V117.809H273.547V71.8188Z" fill="#F0F0F0"/>
<path d="M288.717 74.6515H108.749C108.449 74.6515 108.155 74.5621 107.906 74.3946C107.657 74.2272 107.464 73.9895 107.352 73.712C107.24 73.4345 107.214 73.13 107.277 72.8375C107.34 72.545 107.489 72.278 107.706 72.0707L156.891 25.0014V4.49909C156.891 4.10148 157.05 3.72029 157.333 3.43914C157.615 3.15799 157.998 2.99984 158.397 2.9994H168.105C168.504 2.99983 168.887 3.15798 169.169 3.43913C169.452 3.72028 169.611 4.10148 169.611 4.49909V12.8288L173.326 9.27352C179.405 3.45565 187.471 0.144184 195.902 0.00459855C204.334 -0.134987 212.506 2.90765 218.776 8.52106L289.724 72.0365C289.951 72.2393 290.11 72.5059 290.182 72.8008C290.253 73.0958 290.233 73.4054 290.124 73.6887C290.015 73.9719 289.822 74.2156 289.571 74.3875C289.32 74.5594 289.022 74.6515 288.717 74.6515Z" fill="#CACACA"/>
<path d="M163.418 83.4831C164.671 83.4831 165.912 83.7288 167.069 84.2061C168.227 84.6834 169.278 85.383 170.164 86.265C171.05 87.147 171.753 88.194 172.232 89.3464C172.712 90.4988 172.958 91.7339 172.958 92.9812V105.812H153.878V92.9812C153.878 91.7339 154.125 90.4988 154.604 89.3464C155.084 88.194 155.787 87.147 156.672 86.265C157.558 85.383 158.61 84.6834 159.767 84.2061C160.925 83.7288 162.165 83.4831 163.418 83.4831Z" fill="white"/>
<path d="M198.733 83.6497C201.263 83.6497 203.69 84.6504 205.479 86.4316C207.268 88.2128 208.273 90.6287 208.273 93.1478V105.979H189.193V93.1478C189.193 90.6287 190.198 88.2128 191.987 86.4316C193.776 84.6504 196.203 83.6497 198.733 83.6497Z" fill="white"/>
<path d="M234.048 83.8163C236.579 83.8163 239.005 84.817 240.794 86.5983C242.583 88.3795 243.588 90.7954 243.588 93.3144V106.145H224.508V93.3144C224.508 90.7954 225.513 88.3795 227.303 86.5983C229.092 84.817 231.518 83.8163 234.048 83.8163Z" fill="white"/>
<path d="M248.107 140.638C250.637 140.638 253.064 141.639 254.853 143.42C256.642 145.201 257.647 147.617 257.647 150.136V162.967H238.567V150.136C238.567 147.617 239.572 145.201 241.361 143.42C243.15 141.639 245.577 140.638 248.107 140.638Z" fill="white"/>
<path d="M153.711 140.638C156.241 140.638 158.667 141.639 160.457 143.42C162.246 145.201 163.251 147.617 163.251 150.136V162.967H144.171V150.136C144.171 148.889 144.417 147.654 144.897 146.501C145.376 145.349 146.079 144.302 146.965 143.42C147.851 142.538 148.902 141.838 150.06 141.361C151.217 140.884 152.458 140.638 153.711 140.638Z" fill="white"/>
<path d="M308.168 131.587L276.394 117.59C276.224 117.515 276.039 117.476 275.852 117.476H124.426C124.253 117.476 124.081 117.509 123.921 117.574L89.3359 131.571C89.0483 131.688 88.8102 131.9 88.6625 132.172C88.5147 132.444 88.4665 132.759 88.5261 133.062C88.5857 133.366 88.7493 133.639 88.989 133.835C89.2288 134.032 89.5296 134.139 89.8402 134.139H98.8134V180.13H97.8092V184.796H299.657V180.13H297.983V134.139H307.626C307.933 134.139 308.231 134.034 308.469 133.842C308.708 133.649 308.872 133.381 308.936 133.082C308.999 132.783 308.958 132.471 308.818 132.199C308.678 131.927 308.448 131.711 308.168 131.587ZM295.305 180.13H101.491V134.139H295.305V180.13Z" fill="#CACACA"/>
<path d="M175.301 103.979H150.865V107.978H175.301V103.979Z" fill="#CACACA"/>
<path d="M211.119 103.979H186.683V107.978H211.119V103.979Z" fill="#CACACA"/>
<path d="M246.936 103.979H222.5V107.978H246.936V103.979Z" fill="#CACACA"/>
<path d="M260.325 161.634H235.889V165.633H260.325V161.634Z" fill="#CACACA"/>
<path d="M165.594 161.634H141.158V165.633H165.594V161.634Z" fill="#CACACA"/>
<path d="M347.523 185H-24.5232C-24.6319 185 -24.7363 184.957 -24.8132 184.88C-24.8901 184.804 -24.9333 184.7 -24.9333 184.592C-24.9333 184.483 -24.8901 184.379 -24.8132 184.303C-24.7363 184.226 -24.6319 184.183 -24.5232 184.183H347.523C347.632 184.183 347.736 184.226 347.813 184.303C347.89 184.379 347.933 184.483 347.933 184.592C347.933 184.7 347.89 184.804 347.813 184.88C347.736 184.957 347.632 185 347.523 185Z" fill="#3F3D56"/>
<path d="M253.944 71.1331C253.944 71.3945 253.94 71.6599 253.936 71.9213C253.932 72.2357 253.924 72.5461 253.911 72.8605C253.899 73.1342 253.887 73.4037 253.87 73.6732C253.821 74.5758 253.743 75.4743 253.637 76.3768C253.612 76.6055 253.583 76.8301 253.55 77.0588C253.526 77.2344 253.501 77.4141 253.472 77.5938C253.444 77.7939 253.415 77.994 253.382 78.1941C253.317 78.6189 253.243 79.0436 253.161 79.4683C253.12 79.6807 253.079 79.893 253.034 80.1054C252.947 80.526 252.853 80.9508 252.755 81.3714C252.746 81.4041 252.738 81.4408 252.73 81.4735C252.681 81.6818 252.632 81.886 252.578 82.0943C252.562 82.1555 252.55 82.2127 252.529 82.2739C252.492 82.4291 252.451 82.5843 252.41 82.7395C252.353 82.9559 252.295 83.1683 252.234 83.3847C252.135 83.7196 252.037 84.0505 251.934 84.3853C251.921 84.4201 251.911 84.4555 251.901 84.4915C251.705 85.1245 251.495 85.7493 251.266 86.3701C251.147 86.6968 251.02 87.0276 250.892 87.3542C250.765 87.681 250.634 88.0077 250.499 88.3304C250.367 88.6448 250.232 88.9592 250.097 89.2696C250.064 89.3431 250.031 89.4166 249.994 89.4901C249.85 89.8127 249.703 90.1272 249.551 90.4417C249.547 90.4458 249.547 90.4539 249.543 90.458C249.424 90.7112 249.297 90.9644 249.169 91.2135C249.169 91.2211 249.166 91.2284 249.161 91.2339C249.038 91.479 248.911 91.724 248.78 91.965L248.571 92.3611L248.546 92.4061C248.284 92.892 248.013 93.3739 247.726 93.8517C247.664 93.9579 247.603 94.0641 247.541 94.1662C247.48 94.2723 247.414 94.3785 247.348 94.4806C247.307 94.5542 247.262 94.6277 247.213 94.7012C247.127 94.84 247.041 94.983 246.95 95.1218C246.934 95.1504 246.913 95.179 246.897 95.2076C246.741 95.4485 246.585 95.6854 246.429 95.9263C246.237 96.2163 246.04 96.5022 245.839 96.788L241.384 103.886L241.191 103.727L241.138 103.678H241.134L240.957 103.531L240.473 103.122C240.326 103.265 240.182 103.408 240.034 103.547C239.977 103.604 239.916 103.657 239.858 103.714C239.813 103.755 239.772 103.796 239.727 103.837C232.025 111.325 221.781 115.661 211.021 115.986H211.009C202.864 116.209 194.801 114.314 187.616 110.489C187.456 110.408 187.3 110.326 187.144 110.232C186.209 109.726 185.294 109.191 184.396 108.619C184.392 108.615 184.388 108.615 184.383 108.611C183.342 107.876 182.324 107.092 181.332 106.258C176.006 101.789 171.793 96.1528 169.022 89.7907C166.252 83.4286 164.999 76.5141 165.363 69.5893C165.375 69.3156 165.391 69.0461 165.412 68.7725C165.478 67.7842 165.579 66.8 165.715 65.8198C165.752 65.5462 165.793 65.2726 165.834 65.0031H253.526C253.698 66.2527 253.817 67.5092 253.883 68.7725C253.924 69.5608 253.944 70.3449 253.944 71.1331Z" fill="#F0F0F0"/>
<path d="M253.526 65.0032C251.947 54.5507 246.653 45.0091 238.607 38.113C230.561 31.2169 220.297 27.4242 209.68 27.4242C199.063 27.4242 188.799 31.2169 180.753 38.113C172.707 45.0091 167.413 54.5507 165.834 65.0032C165.793 65.2727 165.752 65.5464 165.715 65.82C165.58 66.8001 165.479 67.7843 165.412 68.7726H253.883C253.817 67.5107 253.698 66.2542 253.526 65.0032Z" fill="#5E7AA0"/>
<path d="M212.552 110.488H187.146V90.2539C187.615 81.0068 195.553 80.2601 203.012 80.7564C204.265 80.7563 205.506 81.0019 206.663 81.4791C207.82 81.9564 208.872 82.656 209.758 83.5379C210.644 84.4199 211.347 85.4669 211.826 86.6192C212.306 87.7716 212.552 89.0067 212.552 90.2539V110.488Z" fill="#5E7AA0"/>
<path d="M187.144 96.102V96.106C187.144 96.1101 187.148 96.1101 187.152 96.1101L187.144 96.102ZM176.926 65.0032C176.91 65.1053 176.889 65.2074 176.873 65.3095C176.889 65.2074 176.91 65.1053 176.93 65.0032H176.926ZM176.417 68.7726C176.405 68.9278 176.393 69.083 176.385 69.2382C176.393 69.083 176.405 68.9278 176.422 68.7726C176.421 68.744 176.422 68.7153 176.426 68.6868C176.422 68.7154 176.422 68.744 176.417 68.7726ZM187.144 96.106C187.144 96.1101 187.148 96.1101 187.152 96.1101L187.144 96.102V96.106ZM176.926 65.0032C176.91 65.1053 176.889 65.2074 176.873 65.3095C176.889 65.2074 176.91 65.1053 176.93 65.0032H176.926ZM176.385 69.2382C176.393 69.083 176.405 68.9278 176.422 68.7726C176.421 68.744 176.422 68.7153 176.426 68.6868C176.422 68.7154 176.422 68.744 176.417 68.7726C176.405 68.9278 176.393 69.083 176.385 69.2382ZM303.11 144.365C303.03 144.281 302.945 144.202 302.856 144.128L302.852 144.124L282.539 127.058L282.014 126.617L280.016 124.938L279.516 124.518L276.669 122.124L275.89 121.471L274.278 120.115L273.453 119.421L265.676 112.891L261.217 109.146L260.618 108.644L247.48 97.6048C247.681 97.319 247.877 97.0331 248.07 96.7431C248.226 96.5022 248.382 96.2653 248.538 96.0244C248.554 95.9958 248.575 95.9672 248.591 95.9386C248.681 95.7997 248.768 95.6568 248.854 95.518C248.903 95.4445 248.948 95.3709 248.989 95.2974C249.055 95.1953 249.12 95.0892 249.182 94.983C249.243 94.8809 249.305 94.7748 249.366 94.6686C249.654 94.1907 249.924 93.7088 250.187 93.2229L250.211 93.1779L250.421 92.7818C250.552 92.5408 250.679 92.2958 250.802 92.0508C250.807 92.0452 250.81 92.0379 250.81 92.0304C250.937 91.7812 251.065 91.5281 251.184 91.2748C251.188 91.2708 251.188 91.2626 251.192 91.2585C251.344 90.9441 251.491 90.6296 251.635 90.307C251.672 90.2335 251.705 90.16 251.737 90.0864C251.873 89.7761 252.008 89.4616 252.139 89.1472C252.275 88.8245 252.406 88.4978 252.533 88.1711C252.66 87.8444 252.787 87.5136 252.906 87.1869C253.132 86.5621 253.344 85.9359 253.542 85.3083C253.551 85.2724 253.562 85.2369 253.575 85.2021C253.678 84.8673 253.776 84.5364 253.875 84.2015C253.936 83.9851 253.993 83.7728 254.051 83.5563C254.092 83.4011 254.133 83.2459 254.17 83.0907C254.19 83.0295 254.203 82.9723 254.219 82.9111C254.272 82.7028 254.322 82.4986 254.371 82.2903C254.379 82.2576 254.387 82.2209 254.395 82.1882C254.494 81.7676 254.588 81.3428 254.674 80.9222C254.719 80.7099 254.76 80.4975 254.801 80.2851C254.879 79.8604 254.957 79.4357 255.023 79.011C255.056 78.8108 255.085 78.6107 255.113 78.4106C255.142 78.231 255.167 78.0512 255.191 77.8756C255.224 77.6469 255.253 77.4223 255.277 77.1936C255.384 76.2911 255.462 75.3926 255.511 74.4901C255.527 74.2206 255.54 73.951 255.552 73.6774C255.564 73.3629 255.573 73.0526 255.577 72.7381C255.581 72.4767 255.585 72.2113 255.585 71.9499C255.585 71.1617 255.564 70.3776 255.523 69.5894C255.458 68.3275 255.339 67.071 255.167 65.82C253.697 55.1262 248.411 45.3161 240.275 38.1828C232.139 31.0496 221.696 27.0697 210.855 26.9706C200.014 26.8715 189.5 30.6598 181.234 37.643C172.967 44.6263 167.501 54.3381 165.834 65.0032C165.793 65.2727 165.752 65.5464 165.715 65.82C165.58 66.8001 165.479 67.7843 165.412 68.7726C165.391 69.0463 165.375 69.3158 165.363 69.5894C164.999 76.5142 166.252 83.4288 169.022 89.7909C171.793 96.1529 176.006 101.789 181.332 106.259C182.324 107.092 183.342 107.876 184.383 108.611C184.388 108.615 184.392 108.615 184.396 108.619C184.744 108.864 185.093 109.105 185.446 109.342C186.008 109.709 186.574 110.069 187.144 110.412C187.189 110.436 187.234 110.465 187.279 110.49C187.772 110.784 188.268 111.065 188.764 111.339H188.768C190.616 112.35 192.534 113.229 194.507 113.969C200.297 116.138 206.471 117.102 212.65 116.803H212.662C219.874 116.456 226.895 114.387 233.135 110.771C234.042 110.249 234.936 109.689 235.81 109.093C236.027 108.946 236.248 108.795 236.462 108.644C236.724 108.46 236.987 108.268 237.249 108.076C237.253 108.076 237.253 108.072 237.257 108.072C237.277 108.056 237.298 108.041 237.319 108.027C237.495 107.892 237.676 107.757 237.848 107.627C237.893 107.594 237.938 107.561 237.983 107.525C237.995 107.516 238.006 107.507 238.016 107.496C238.119 107.423 238.217 107.341 238.32 107.263C238.422 107.186 238.521 107.104 238.623 107.022C238.641 107.011 238.657 106.999 238.673 106.986C238.788 106.892 238.902 106.802 239.017 106.708C239.136 106.614 239.251 106.516 239.362 106.422C239.477 106.328 239.587 106.234 239.702 106.136C239.801 106.054 239.903 105.969 240.002 105.879C240.034 105.854 240.063 105.826 240.096 105.797C240.109 105.785 240.122 105.774 240.137 105.764C240.272 105.65 240.404 105.532 240.535 105.413C240.568 105.385 240.596 105.356 240.629 105.327C240.83 105.148 241.031 104.968 241.228 104.78C241.273 104.739 241.323 104.694 241.368 104.654C241.413 104.613 241.454 104.572 241.499 104.531C241.556 104.474 241.618 104.421 241.675 104.364C241.823 104.225 241.967 104.082 242.114 103.939L242.598 104.347L242.775 104.494H242.779L242.832 104.543L243.025 104.703L245.888 107.112L245.95 107.165L245.999 107.202L246.323 107.476L246.971 108.023L247.619 108.566L247.713 108.644L250.728 111.176L251.147 111.527L254.055 113.969L269.109 126.617L269.634 127.058L290.238 144.365L295.521 148.805L297.486 150.454C297.903 150.806 298.386 151.072 298.906 151.237C299.427 151.403 299.975 151.465 300.519 151.419C301.064 151.374 301.594 151.222 302.079 150.972C302.564 150.723 302.996 150.38 303.348 149.964C303.643 149.619 303.877 149.227 304.041 148.805C304.339 148.055 304.41 147.235 304.244 146.446C304.079 145.657 303.684 144.934 303.11 144.365ZM184.289 49.6968C188.404 44.8416 193.815 41.2446 199.897 39.3213C205.978 37.3979 212.482 37.2267 218.657 38.8274C224.832 40.4281 230.426 43.7354 234.793 48.3673C239.16 52.9991 242.122 58.7665 243.337 65.0032C243.39 65.2768 243.439 65.5463 243.484 65.82C243.652 66.796 243.775 67.7843 243.849 68.7726C243.87 69.0462 243.89 69.3158 243.903 69.5894C243.94 70.202 243.956 70.8186 243.956 71.4312C243.958 75.1471 243.34 78.8375 242.126 82.3515V82.3556C240.77 86.2956 238.688 89.9492 235.986 93.129C235.928 93.1943 235.871 93.2637 235.81 93.3291C235.268 93.9661 234.698 94.5787 234.111 95.1627C234.107 95.1668 234.103 95.175 234.099 95.1791C233.898 95.3792 233.693 95.5834 233.488 95.7712C233.069 96.1755 232.643 96.5594 232.208 96.927C231.556 97.4946 230.887 98.0269 230.202 98.5238C229.972 98.6912 229.743 98.8546 229.509 99.0179C229.279 99.1813 229.045 99.3364 228.812 99.4916C228.344 99.802 227.868 100.1 227.388 100.382C227.15 100.525 226.904 100.664 226.662 100.798C226.42 100.937 226.174 101.068 225.928 101.195C225.682 101.325 225.436 101.452 225.186 101.574C224.689 101.824 224.189 102.056 223.68 102.273C223.426 102.387 223.171 102.493 222.917 102.591C222.757 102.657 222.601 102.722 222.441 102.779C222.379 102.808 222.314 102.832 222.248 102.853C222.162 102.889 222.076 102.922 221.99 102.951C221.962 102.963 221.933 102.974 221.904 102.983C221.727 103.053 221.555 103.114 221.375 103.175C221.116 103.269 220.858 103.355 220.595 103.437C220.333 103.522 220.074 103.604 219.812 103.678C219.549 103.759 219.283 103.833 219.02 103.902C218.754 103.976 218.491 104.045 218.224 104.106C217.941 104.18 217.658 104.245 217.371 104.307C217.121 104.364 216.875 104.413 216.625 104.458C216.391 104.507 216.153 104.548 215.919 104.588C215.591 104.646 215.263 104.699 214.931 104.744C214.75 104.772 214.574 104.797 214.393 104.813C214.315 104.825 214.241 104.833 214.168 104.842C213.938 104.874 213.708 104.899 213.483 104.919C213.421 104.923 213.364 104.931 213.306 104.935C213.056 104.96 212.802 104.98 212.551 105.001C212.014 105.038 211.481 105.062 210.943 105.074C210.673 105.078 210.398 105.082 210.127 105.082C209.856 105.082 209.586 105.078 209.315 105.07C209.315 105.07 209.315 105.074 209.311 105.07C209.307 105.074 209.307 105.074 209.303 105.07C209.302 105.071 209.302 105.071 209.301 105.072C209.3 105.072 209.299 105.072 209.299 105.072C209.298 105.072 209.297 105.072 209.296 105.072C209.296 105.071 209.295 105.071 209.294 105.07C209.281 105.074 209.267 105.074 209.254 105.07C209.061 105.07 208.868 105.062 208.679 105.05C208.54 105.046 208.396 105.042 208.253 105.029C208.06 105.021 207.867 105.009 207.674 104.993C207.613 104.993 207.551 104.985 207.49 104.98C207.461 104.98 207.432 104.977 207.404 104.972C207.207 104.956 207.006 104.94 206.809 104.919C206.71 104.911 206.608 104.903 206.509 104.891C206.21 104.858 205.91 104.821 205.615 104.78C205.279 104.739 204.942 104.69 204.61 104.629C204.454 104.609 204.302 104.58 204.151 104.552C203.95 104.519 203.749 104.482 203.548 104.441C203.338 104.401 203.129 104.36 202.92 104.311C202.752 104.274 202.58 104.237 202.411 104.196C202.329 104.18 202.247 104.16 202.169 104.139C201.739 104.037 201.312 103.927 200.89 103.804C200.623 103.731 200.356 103.653 200.094 103.571C199.733 103.461 199.376 103.343 199.019 103.216C198.88 103.171 198.744 103.122 198.605 103.069C198.465 103.024 198.33 102.971 198.191 102.918C198.063 102.873 197.936 102.824 197.813 102.775C197.608 102.698 197.407 102.616 197.206 102.534C196.792 102.367 196.386 102.191 195.98 102.003C195.75 101.893 195.52 101.787 195.295 101.677C194.404 101.248 193.528 100.771 192.665 100.247C192.452 100.121 192.239 99.9859 192.025 99.8511C191.759 99.6877 191.5 99.5162 191.242 99.3447C191.098 99.2467 190.959 99.1527 190.819 99.0547C190.561 98.875 190.307 98.6912 190.056 98.5074C189.925 98.4135 189.794 98.3155 189.667 98.2175C189.211 97.8744 188.764 97.5151 188.325 97.1475C188.116 96.9719 187.907 96.7922 187.702 96.6085C187.616 96.5349 187.53 96.4573 187.443 96.3797C187.345 96.2899 187.247 96.2041 187.152 96.1101L187.144 96.102C187.001 95.9754 186.857 95.8407 186.717 95.7059C186.5 95.5017 186.287 95.2934 186.082 95.0811C185.868 94.8728 185.663 94.6564 185.462 94.444C185.257 94.2316 185.06 94.0152 184.867 93.7946C184.671 93.5782 184.478 93.3577 184.289 93.1331C184.104 92.9207 183.924 92.7002 183.752 92.4837C183.333 91.9691 182.934 91.445 182.554 90.9114C182.378 90.6664 182.209 90.4213 182.045 90.1723C181.869 89.919 181.701 89.6618 181.541 89.4044C181.373 89.1472 181.213 88.8858 181.057 88.6204C181.053 88.6113 181.047 88.603 181.04 88.5958C180.733 88.0772 180.437 87.5545 180.162 87.0235C179.879 86.4845 179.613 85.94 179.363 85.39C179.235 85.1163 179.112 84.8387 178.998 84.561C178.76 84.0014 178.538 83.442 178.333 82.8743C178.23 82.6007 178.136 82.327 178.042 82.0493C178.039 82.031 178.033 82.0131 178.025 81.9963C177.837 81.4327 177.664 80.8651 177.513 80.2933C177.508 80.2852 177.508 80.277 177.504 80.2688C177.426 79.987 177.353 79.7052 177.287 79.4194C177.221 79.1703 177.164 78.9211 177.111 78.6679C177.049 78.3861 176.988 78.1044 176.934 77.8185C176.906 77.6714 176.877 77.5244 176.852 77.3774C176.828 77.2549 176.807 77.1283 176.787 77.0058C176.766 76.8833 176.746 76.7566 176.725 76.6301C176.684 76.381 176.647 76.1319 176.614 75.8828C176.573 75.5887 176.54 75.2946 176.508 74.9965C176.471 74.6412 176.438 74.2859 176.409 73.9265C176.389 73.6856 176.376 73.4405 176.364 73.1955C176.352 72.9709 176.339 72.7463 176.335 72.5217C176.331 72.5098 176.331 72.4968 176.335 72.4849C176.335 72.4844 176.334 72.4838 176.334 72.4831C176.334 72.4824 176.334 72.4816 176.334 72.4809C176.334 72.4801 176.334 72.4793 176.334 72.4786C176.334 72.4779 176.335 72.4773 176.335 72.4768C176.331 72.4727 176.331 72.4727 176.335 72.4686C176.335 72.4681 176.334 72.4674 176.334 72.4667C176.334 72.466 176.334 72.4653 176.334 72.4645C176.334 72.4638 176.334 72.463 176.334 72.4623C176.334 72.4616 176.335 72.461 176.335 72.4604C176.331 72.3706 176.327 72.2808 176.327 72.1909C176.319 71.9255 176.315 71.66 176.315 71.3946C176.315 71.1536 176.319 70.9167 176.323 70.6758C176.331 70.3409 176.344 70.006 176.36 69.6711C176.36 69.5976 176.368 69.5282 176.372 69.4547C176.376 69.3812 176.381 69.3117 176.385 69.2382C176.393 69.083 176.405 68.9278 176.422 68.7726C176.421 68.744 176.422 68.7153 176.426 68.6868C176.438 68.5112 176.454 68.3357 176.471 68.1601C176.504 67.8089 176.545 67.4536 176.59 67.1024C176.614 66.9268 176.635 66.7512 176.664 66.5756C176.68 66.453 176.7 66.3264 176.721 66.1998C176.737 66.0732 176.758 65.9466 176.783 65.82C176.811 65.6526 176.84 65.481 176.873 65.3095C176.889 65.2074 176.91 65.1053 176.93 65.0032C177.008 64.5948 177.094 64.1865 177.188 63.7781C177.283 63.3656 177.39 62.9572 177.504 62.5488C177.615 62.1364 177.738 61.7239 177.869 61.3114C177.931 61.1031 177.997 60.899 178.07 60.6948C178.206 60.2823 178.349 59.8739 178.509 59.4696C178.583 59.2695 178.661 59.0653 178.747 58.8652C178.911 58.4609 179.084 58.0566 179.26 57.6604C179.35 57.4603 179.441 57.2602 179.539 57.0601C179.724 56.664 179.916 56.2678 180.126 55.8799C180.327 55.4837 180.544 55.0958 180.765 54.7119C180.987 54.328 181.217 53.9441 181.459 53.5643C181.569 53.3764 181.692 53.1845 181.82 53.0007C182.066 52.625 182.324 52.2493 182.587 51.8817C183.116 51.1384 183.686 50.4074 184.289 49.6968ZM176.417 68.7726C176.405 68.9278 176.393 69.083 176.385 69.2382C176.393 69.083 176.405 68.9278 176.422 68.7726C176.421 68.744 176.422 68.7153 176.426 68.6868C176.422 68.7154 176.422 68.744 176.417 68.7726ZM176.926 65.0032C176.91 65.1053 176.889 65.2074 176.873 65.3095C176.889 65.2074 176.91 65.1053 176.93 65.0032H176.926ZM187.144 96.102V96.106C187.144 96.1101 187.148 96.1101 187.152 96.1101L187.144 96.102Z" fill="#3F3D56"/>
<path opacity="0.3" d="M188.326 97.1471C181.838 91.696 177.646 84.015 176.582 75.6293C175.519 67.2436 177.663 58.7665 182.587 51.8812C181.94 52.5296 181.315 53.2086 180.711 53.9183C177.847 57.2978 175.679 61.2059 174.332 65.4194C172.985 69.6329 172.485 74.0693 172.859 78.4754C173.234 82.8815 174.477 87.1708 176.517 91.0987C178.557 95.0265 181.354 98.5158 184.749 101.367C191.604 107.127 200.477 109.938 209.414 109.185C218.352 108.431 226.623 104.173 232.408 97.3476C233.01 96.637 233.577 95.9092 234.109 95.1643C228.12 101.155 220.088 104.685 211.606 105.052C203.125 105.419 194.814 102.598 188.326 97.1471Z" fill="black"/>
</g>
<defs>
<clipPath id="clip0_176_1293">
<rect width="323" height="185" fill="white"/>
</clipPath>
</defs>
</svg>
