<svg width="184" height="279" viewBox="0 0 184 279" fill="none" xmlns="http://www.w3.org/2000/svg">
<g clip-path="url(#clip0_176_1331)">
<path d="M160.817 279H74.6195C61.8363 279 51.4365 268.627 51.4365 255.876V31.3551C51.4365 18.6044 61.8363 8.23114 74.6195 8.23114H160.817C173.6 8.23114 184 18.6044 184 31.3551V255.876C184 268.627 173.6 279 160.817 279ZM74.6195 9.12155C62.3273 9.12155 52.3292 19.0941 52.3292 31.3551V255.876C52.3292 268.137 62.3273 278.11 74.6195 278.11H160.817C173.109 278.11 183.107 268.137 183.107 255.876V31.3551C183.107 19.0941 173.109 9.12155 160.817 9.12155H74.6195Z" fill="#DEDFE0"/>
<path d="M129.926 29.316H105.515C102.293 29.316 99.6726 26.7027 99.6726 23.4883C99.6726 20.2739 102.293 17.6606 105.515 17.6606H129.926C133.148 17.6606 135.768 20.2739 135.768 23.4883C135.768 26.7027 133.148 29.316 129.926 29.316Z" fill="#DADBDC"/>
<path d="M95.9992 278.533C95.9992 278.773 95.8028 278.969 95.5618 278.969H0.437415C0.19639 278.969 0 278.773 0 278.533C0 278.292 0.19639 278.096 0.437415 278.096H95.5618C95.8028 278.096 95.9992 278.292 95.9992 278.533Z" fill="#3F3D58"/>
<path d="M53.1863 143.622L61.9569 146.498V133.908H53.9986L53.1863 143.622Z" fill="#F6AAAE"/>
<path d="M60.8675 137.394C65.6942 137.394 69.6069 133.491 69.6069 128.677C69.6069 123.862 65.6942 119.96 60.8675 119.96C56.0409 119.96 52.1282 123.862 52.1282 128.677C52.1282 133.491 56.0409 137.394 60.8675 137.394Z" fill="#F6AAAE"/>
<path d="M58.645 129.358L59.8501 130.818L62.0282 127.016C62.0282 127.016 64.8089 127.159 64.8089 125.102C64.8089 123.045 67.362 122.987 67.362 122.987C67.362 122.987 70.9729 116.696 63.4922 118.352C63.4922 118.352 58.3013 114.804 55.7214 117.836C55.7214 117.836 47.8078 121.812 50.0707 128.735L53.8334 135.867L54.6859 134.251C54.6859 134.251 54.1682 127.47 58.645 129.358Z" fill="#2F2E43"/>
<path d="M57.8324 262.928H50.7712V272.919H57.8324V262.928Z" fill="#F6AAAE"/>
<path d="M57.0559 278.644C55.8463 278.755 49.8073 279.227 49.5038 277.847C49.2271 276.578 49.6333 275.251 49.6913 275.073C50.2715 269.312 50.4858 269.246 50.6152 269.206C50.8205 269.148 51.4231 269.428 52.3961 270.056L52.4586 270.096L52.472 270.167C52.4898 270.256 52.9228 272.371 54.967 272.05C56.3686 271.828 56.8238 271.521 56.9711 271.369C56.8506 271.316 56.7033 271.222 56.6007 271.058C56.4489 270.822 56.4221 270.519 56.5203 270.158C56.7837 269.201 57.5737 267.785 57.6049 267.727L57.6942 267.567L65.7194 272.968L70.6738 274.379C71.0487 274.486 71.3478 274.753 71.4995 275.109C71.7093 275.608 71.5799 276.186 71.1782 276.547C70.2766 277.353 68.4912 278.737 66.6121 278.907C66.1122 278.951 65.4516 278.969 64.7107 278.969C61.6086 278.969 57.0872 278.648 57.0515 278.644L57.0559 278.644Z" fill="#2F2E43"/>
<path d="M35.8087 247.925L29.4243 255.623L34.865 260.112L41.2494 252.414L35.8087 247.925Z" fill="#F6AAAE"/>
<path d="M30.6146 264.037C29.6148 263.351 24.6559 259.878 25.3031 258.623C25.9012 257.47 27.0617 256.709 27.2224 256.606C31.3511 252.537 31.5609 252.622 31.6858 252.675C31.8822 252.76 32.1634 253.361 32.516 254.46L32.5383 254.527L32.5026 254.589C32.458 254.67 31.4403 256.575 33.2213 257.626C34.4442 258.347 34.9932 258.396 35.1985 258.374C35.1405 258.258 35.087 258.089 35.1093 257.897C35.1405 257.621 35.3146 257.367 35.627 257.154C36.4438 256.584 37.9525 255.996 38.0194 255.97L38.189 255.903L40.9207 265.167L43.8353 269.406C44.054 269.726 44.1165 270.123 44.0049 270.497C43.8487 271.013 43.38 271.378 42.8355 271.4C41.6259 271.449 39.3674 271.378 37.8096 270.314C37.399 270.034 36.8768 269.628 36.3055 269.156C33.9175 267.184 30.6369 264.063 30.6102 264.037L30.6146 264.037Z" fill="#2F2E43"/>
<path d="M69.5134 185.877H45.2949L50.6778 265.728H58.7521L69.5179 185.877L69.5134 185.877Z" fill="#2F2E43"/>
<path d="M64.5812 190.275L69.5133 185.877L67.045 229.792L39.4611 255.961L32.5874 250.293L48.6557 229.493L64.5812 190.275Z" fill="#2F2E43"/>
<path d="M64.5812 138.903L52.6193 136.966L48.9057 143.444C44.1834 151.68 42.2597 161.217 43.4157 170.633L45.2948 185.881H69.5133L64.5812 138.908L64.5812 138.903Z" fill="#DADBDC"/>
<path d="M54.8689 200.252C55.3643 202.714 54.4404 204.962 52.8113 205.274C51.1776 205.581 49.4548 203.836 48.9593 201.37C48.7495 200.386 48.7852 199.371 49.0664 198.405L47.1025 187.938L52.2355 187.141L53.6236 197.545C54.2574 198.342 54.6859 199.268 54.8689 200.257V200.252Z" fill="#F6AAAE"/>
<path d="M48.6244 197.416L41.0857 174.186V174.15L43.9334 150.229C44.3708 146.565 47.4862 143.805 51.1819 143.805C53.4449 143.805 55.5427 144.824 56.9353 146.605C58.3279 148.386 58.8144 150.661 58.2654 152.856L53.2351 172.921L54.4358 195.693L48.6199 197.416L48.6244 197.416Z" fill="#DADBDC"/>
<path d="M91.7546 146.374C93.8479 157.526 104.609 164.876 115.795 162.784C119.178 162.152 122.213 160.727 124.739 158.737L150.181 186.108C151.738 187.782 154.394 187.778 155.948 186.095C157.398 184.523 157.318 182.083 155.765 180.61L128.582 154.77C131.85 150.345 133.34 144.633 132.247 138.805C130.153 127.653 119.392 120.302 108.207 122.395C97.0214 124.487 89.6568 135.217 91.7546 146.374ZM96.1466 145.554C94.5085 136.82 100.275 128.414 109.033 126.78C117.79 125.146 126.217 130.898 127.855 139.633C129.493 148.368 123.726 156.774 114.969 158.407C106.212 160.041 97.7847 154.289 96.1466 145.554Z" fill="#5E7AA0"/>
</g>
<defs>
<clipPath id="clip0_176_1331">
<rect width="184" height="279" fill="white"/>
</clipPath>
</defs>
</svg>
