<svg width="305" height="258" viewBox="0 0 305 258" fill="none" xmlns="http://www.w3.org/2000/svg">
<g clip-path="url(#clip0_176_1358)">
<path d="M196.428 155.147H114.223C112.019 155.145 109.907 154.268 108.349 152.711C106.792 151.153 105.915 149.041 105.913 146.837V37.9874C105.915 35.7843 106.792 33.6721 108.349 32.1143C109.907 30.5564 112.019 29.6801 114.223 29.6776H196.428C198.631 29.6801 200.743 30.5564 202.301 32.1142C203.859 33.6721 204.735 35.7843 204.738 37.9874V146.837C204.735 149.041 203.859 151.153 202.301 152.711C200.743 154.268 198.631 155.145 196.428 155.147Z" fill="#E6E6E6"/>
<path d="M190.65 148.221H120.001C118.045 148.219 116.169 147.441 114.786 146.058C113.403 144.675 112.625 142.799 112.623 140.843V43.9815C112.625 42.0254 113.403 40.15 114.786 38.7668C116.169 37.3836 118.045 36.6056 120.001 36.6034H190.65C192.606 36.6056 194.481 37.3836 195.864 38.7668C197.248 40.15 198.026 42.0254 198.028 43.9815V140.843C198.026 142.799 197.248 144.675 195.864 146.058C194.481 147.441 192.606 148.219 190.65 148.221Z" fill="white"/>
<path d="M183.602 55.0109H127.048C126.806 55.0113 126.566 54.9638 126.342 54.8713C126.118 54.7788 125.914 54.643 125.743 54.4717C125.571 54.3004 125.435 54.0969 125.342 53.873C125.249 53.649 125.201 53.409 125.201 53.1665C125.201 52.9241 125.249 52.6841 125.342 52.4601C125.435 52.2362 125.571 52.0327 125.743 51.8614C125.914 51.6901 126.118 51.5543 126.342 51.4618C126.566 51.3693 126.806 51.3218 127.048 51.3221H183.602C183.844 51.3218 184.084 51.3693 184.308 51.4618C184.532 51.5543 184.736 51.6901 184.908 51.8614C185.079 52.0327 185.215 52.2362 185.308 52.4601C185.401 52.6841 185.449 52.9241 185.449 53.1665C185.449 53.409 185.401 53.649 185.308 53.873C185.215 54.0969 185.079 54.3004 184.908 54.4717C184.736 54.643 184.532 54.7788 184.308 54.8713C184.084 54.9638 183.844 55.0113 183.602 55.0109Z" fill="#E4E4E4"/>
<path d="M183.602 62.2991H127.049C126.559 62.2991 126.09 62.1048 125.744 61.7589C125.398 61.413 125.204 60.9438 125.204 60.4546C125.204 59.9654 125.398 59.4963 125.744 59.1503C126.09 58.8044 126.559 58.6101 127.049 58.6101H183.602C184.091 58.6101 184.56 58.8044 184.906 59.1503C185.252 59.4963 185.446 59.9654 185.446 60.4546C185.446 60.9438 185.252 61.413 184.906 61.7589C184.56 62.1048 184.091 62.2991 183.602 62.2991Z" fill="#E4E4E4"/>
<path d="M151.563 69.5872H127.049C126.559 69.5872 126.09 69.3929 125.744 69.047C125.398 68.7011 125.204 68.2319 125.204 67.7427C125.204 67.2536 125.398 66.7844 125.744 66.4385C126.09 66.0926 126.559 65.8983 127.049 65.8983H151.563C152.052 65.8983 152.521 66.0926 152.867 66.4385C153.213 66.7844 153.408 67.2536 153.408 67.7427C153.408 68.2319 153.213 68.7011 152.867 69.047C152.521 69.3929 152.052 69.5872 151.563 69.5872Z" fill="#E4E4E4"/>
<path d="M183.602 84.8513H127.048C126.806 84.8517 126.566 84.8042 126.342 84.7117C126.118 84.6192 125.914 84.4834 125.743 84.3121C125.571 84.1408 125.435 83.9373 125.342 83.7134C125.249 83.4894 125.201 83.2494 125.201 83.0069C125.201 82.7645 125.249 82.5245 125.342 82.3005C125.435 82.0766 125.571 81.8731 125.743 81.7018C125.914 81.5305 126.118 81.3947 126.342 81.3022C126.566 81.2096 126.806 81.1622 127.048 81.1625H183.602C183.844 81.1622 184.084 81.2096 184.308 81.3022C184.532 81.3947 184.736 81.5305 184.908 81.7018C185.079 81.8731 185.215 82.0766 185.308 82.3005C185.401 82.5245 185.449 82.7645 185.449 83.0069C185.449 83.2494 185.401 83.4894 185.308 83.7134C185.215 83.9373 185.079 84.1408 184.908 84.3121C184.736 84.4834 184.532 84.6192 184.308 84.7117C184.084 84.8042 183.844 84.8517 183.602 84.8513Z" fill="#E4E4E4"/>
<path d="M183.602 92.1395H127.049C126.559 92.1395 126.09 91.9452 125.744 91.5992C125.398 91.2533 125.204 90.7842 125.204 90.295C125.204 89.8058 125.398 89.3366 125.744 88.9907C126.09 88.6448 126.559 88.4505 127.049 88.4505H183.602C184.091 88.4505 184.56 88.6448 184.906 88.9907C185.252 89.3366 185.446 89.8058 185.446 90.295C185.446 90.7842 185.252 91.2533 184.906 91.5992C184.56 91.9452 184.091 92.1395 183.602 92.1395Z" fill="#E4E4E4"/>
<path d="M151.563 99.4276H127.049C126.56 99.4269 126.091 99.2323 125.746 98.8865C125.401 98.5406 125.207 98.0719 125.207 97.5831C125.207 97.0944 125.401 96.6257 125.746 96.2798C126.091 95.934 126.56 95.7393 127.049 95.7386H151.563C152.052 95.7386 152.521 95.933 152.867 96.2789C153.213 96.6248 153.408 97.0939 153.408 97.5831C153.408 98.0723 153.213 98.5415 152.867 98.8874C152.521 99.2333 152.052 99.4276 151.563 99.4276Z" fill="#E4E4E4"/>
<path d="M183.602 114.692H127.048C126.806 114.692 126.566 114.645 126.342 114.552C126.118 114.46 125.914 114.324 125.743 114.152C125.571 113.981 125.435 113.778 125.342 113.554C125.249 113.33 125.201 113.09 125.201 112.847C125.201 112.605 125.249 112.365 125.342 112.141C125.435 111.917 125.571 111.714 125.743 111.542C125.914 111.371 126.118 111.235 126.342 111.143C126.566 111.05 126.806 111.003 127.048 111.003H183.602C183.844 111.003 184.084 111.05 184.308 111.143C184.532 111.235 184.736 111.371 184.908 111.542C185.079 111.714 185.215 111.917 185.308 112.141C185.401 112.365 185.449 112.605 185.449 112.847C185.449 113.09 185.401 113.33 185.308 113.554C185.215 113.778 185.079 113.981 184.908 114.152C184.736 114.324 184.532 114.46 184.308 114.552C184.084 114.645 183.844 114.692 183.602 114.692Z" fill="#E4E4E4"/>
<path d="M183.602 121.98H127.049C126.559 121.98 126.09 121.786 125.744 121.44C125.398 121.094 125.204 120.625 125.204 120.135C125.204 119.646 125.398 119.177 125.744 118.831C126.09 118.485 126.559 118.291 127.049 118.291H183.602C184.091 118.291 184.56 118.485 184.906 118.831C185.252 119.177 185.446 119.646 185.446 120.135C185.446 120.625 185.252 121.094 184.906 121.44C184.56 121.786 184.091 121.98 183.602 121.98Z" fill="#E4E4E4"/>
<path d="M151.563 129.268H127.049C126.559 129.268 126.09 129.074 125.744 128.728C125.398 128.382 125.204 127.913 125.204 127.424C125.204 126.934 125.398 126.465 125.744 126.119C126.09 125.773 126.559 125.579 127.049 125.579H151.563C152.052 125.579 152.521 125.773 152.867 126.119C153.213 126.465 153.408 126.934 153.408 127.424C153.408 127.913 153.213 128.382 152.867 128.728C152.521 129.074 152.052 129.268 151.563 129.268Z" fill="#E4E4E4"/>
<path d="M139.036 91.8668L77.5934 39.3122H36.3152V38.5381H77.8793L139.539 91.2785L139.036 91.8668Z" fill="#2F2E41"/>
<path d="M36.3149 45.119C39.7356 45.119 42.5087 42.346 42.5087 38.9252C42.5087 35.5044 39.7356 32.7314 36.3149 32.7314C32.8942 32.7314 30.1211 35.5044 30.1211 38.9252C30.1211 42.346 32.8942 45.119 36.3149 45.119Z" fill="#5E7AA0"/>
<path d="M58.3977 59.7588H1.8444C1.60219 59.7588 1.36235 59.711 1.13858 59.6184C0.914806 59.5257 0.711478 59.3898 0.540211 59.2185C0.368943 59.0473 0.233087 58.8439 0.140398 58.6202C0.0477086 58.3964 0 58.1566 0 57.9143C0 57.6721 0.0477086 57.4323 0.140398 57.2085C0.233087 56.9848 0.368943 56.7814 0.540211 56.6102C0.711478 56.4389 0.914806 56.303 1.13858 56.2103C1.36235 56.1177 1.60219 56.0699 1.8444 56.0699H58.3977C58.6399 56.0699 58.8798 56.1177 59.1036 56.2103C59.3273 56.303 59.5307 56.4389 59.7019 56.6102C59.8732 56.7814 60.009 56.9848 60.1017 57.2085C60.1944 57.4323 60.2421 57.6721 60.2421 57.9143C60.2421 58.1566 60.1944 58.3964 60.1017 58.6202C60.009 58.8439 59.8732 59.0473 59.7019 59.2185C59.5307 59.3898 59.3273 59.5257 59.1036 59.6184C58.8798 59.711 58.6399 59.7588 58.3977 59.7588Z" fill="#5E7AA0"/>
<path d="M58.3978 67.0469H1.84448C1.35529 67.0469 0.886141 66.8526 0.540233 66.5067C0.194326 66.1608 0 65.6916 0 65.2024C0 64.7132 0.194326 64.2441 0.540233 63.8982C0.886141 63.5522 1.35529 63.3579 1.84448 63.3579H58.3978C58.887 63.3579 59.3562 63.5522 59.7021 63.8982C60.048 64.2441 60.2423 64.7132 60.2423 65.2024C60.2423 65.6916 60.048 66.1608 59.7021 66.5067C59.3562 66.8526 58.887 67.0469 58.3978 67.0469Z" fill="#5E7AA0"/>
<path d="M26.359 74.335H1.84448C1.35529 74.335 0.886141 74.1407 0.540233 73.7948C0.194326 73.4489 0 72.9797 0 72.4905C0 72.0014 0.194326 71.5322 0.540233 71.1863C0.886141 70.8404 1.35529 70.6461 1.84448 70.6461H26.359C26.8482 70.6461 27.3173 70.8404 27.6632 71.1863C28.0091 71.5322 28.2035 72.0014 28.2035 72.4905C28.2035 72.9797 28.0091 73.4489 27.6632 73.7948C27.3173 74.1407 26.8482 74.335 26.359 74.335Z" fill="#5E7AA0"/>
<path d="M155.325 58.547L216.985 5.80658H258.549V6.58074H217.271L155.829 59.1353L155.325 58.547Z" fill="#2F2E41"/>
<path d="M258.549 12.3877C261.97 12.3877 264.743 9.6146 264.743 6.19384C264.743 2.77308 261.97 0 258.549 0C255.128 0 252.355 2.77308 252.355 6.19384C252.355 9.6146 255.128 12.3877 258.549 12.3877Z" fill="#5E7AA0"/>
<path d="M300.663 26.8102H244.11C243.868 26.8106 243.627 26.7631 243.403 26.6706C243.179 26.5781 242.976 26.4423 242.804 26.271C242.633 26.0996 242.496 25.8962 242.404 25.6723C242.311 25.4483 242.263 25.2083 242.263 24.9658C242.263 24.7234 242.311 24.4833 242.404 24.2594C242.496 24.0355 242.633 23.832 242.804 23.6607C242.976 23.4894 243.179 23.3536 243.403 23.2611C243.627 23.1685 243.868 23.1211 244.11 23.1214H300.663C300.906 23.1211 301.146 23.1685 301.37 23.2611C301.594 23.3536 301.798 23.4894 301.969 23.6607C302.141 23.832 302.277 24.0355 302.37 24.2594C302.463 24.4833 302.51 24.7234 302.51 24.9658C302.51 25.2083 302.463 25.4483 302.37 25.6723C302.277 25.8962 302.141 26.0996 301.969 26.271C301.798 26.4423 301.594 26.5781 301.37 26.6706C301.146 26.7631 300.906 26.8106 300.663 26.8102Z" fill="#5E7AA0"/>
<path d="M300.663 34.0984H244.11C243.621 34.0984 243.152 33.904 242.806 33.5581C242.46 33.2122 242.265 32.7431 242.265 32.2539C242.265 31.7647 242.46 31.2955 242.806 30.9496C243.152 30.6037 243.621 30.4094 244.11 30.4094H300.663C300.905 30.4094 301.145 30.4571 301.369 30.5498C301.593 30.6425 301.796 30.7784 301.967 30.9496C302.139 31.1209 302.275 31.3242 302.367 31.548C302.46 31.7718 302.508 32.0117 302.508 32.2539C302.508 32.4961 302.46 32.736 302.367 32.9597C302.275 33.1835 302.139 33.3869 301.967 33.5581C301.796 33.7294 301.593 33.8653 301.369 33.958C301.145 34.0507 300.905 34.0984 300.663 34.0984Z" fill="#5E7AA0"/>
<path d="M268.624 41.3865H244.11C243.621 41.3865 243.152 41.1922 242.806 40.8463C242.46 40.5004 242.265 40.0312 242.265 39.542C242.265 39.0528 242.46 38.5837 242.806 38.2378C243.152 37.8919 243.621 37.6975 244.11 37.6975H268.624C269.114 37.6975 269.583 37.8919 269.929 38.2378C270.275 38.5837 270.469 39.0528 270.469 39.542C270.469 40.0312 270.275 40.5004 269.929 40.8463C269.583 41.1922 269.114 41.3865 268.624 41.3865Z" fill="#5E7AA0"/>
<path d="M256.325 174.912C256.007 174.565 255.768 174.152 255.626 173.703C255.484 173.254 255.442 172.779 255.503 172.312C255.564 171.845 255.727 171.397 255.98 171C256.233 170.602 256.571 170.265 256.968 170.012L254.327 158.87L259.916 160.912L261.567 171.18C261.948 171.876 262.06 172.687 261.883 173.46C261.705 174.233 261.25 174.914 260.604 175.374C259.958 175.834 259.165 176.041 258.377 175.956C257.588 175.871 256.858 175.499 256.325 174.912Z" fill="#9E616A"/>
<path d="M242.884 128.218L245.127 133.986C245.127 133.986 244.166 139.755 245.768 141.036C247.371 142.318 246.73 142.318 246.73 143.279C246.785 143.969 246.985 144.639 247.316 145.247C247.647 145.854 248.102 146.385 248.652 146.804C249.934 147.766 255.702 167.313 255.702 167.313H261.47C261.284 165.824 261.284 164.317 261.47 162.827C261.791 160.584 260.509 154.816 259.868 153.854C259.227 152.893 259.868 151.611 259.868 149.689C259.868 147.766 258.586 146.804 258.586 143.6C258.586 140.395 254.741 115.4 255.061 112.516C255.382 109.632 251.857 107.069 251.857 107.069H248.652L242.884 128.218Z" fill="#E6E7E8"/>
<path d="M229.312 140.453L223.981 164.246L258.145 162.12L248.856 138.753L229.312 140.453Z" fill="#9E616A"/>
<path d="M303.783 229.877C302.766 233.554 301.178 237.049 299.077 240.233C294.383 247.332 287.664 252.76 280.28 257.105C279.769 257.409 279.249 257.707 278.73 258H273.551L273.37 257.586V257.582L273.159 257.105L273.133 257.048L273.122 257.105L272.915 258H270.372C270.161 257.703 269.954 257.406 269.751 257.105C269.454 256.665 269.168 256.221 268.897 255.769C268.419 254.98 267.992 254.161 267.618 253.317C267.573 253.223 267.536 253.129 267.498 253.035L267.667 252.85L266.964 249.773L268.378 249.54L266.828 244.759C266.885 244.582 266.949 244.405 267.016 244.228C267.885 242.028 269.518 240.384 271.455 239.003C273.449 237.578 275.77 236.434 277.903 235.245C278.903 234.685 279.889 234.094 280.848 233.47V233.466C282.075 232.672 283.264 231.823 284.418 230.919C284.438 230.907 284.457 230.893 284.474 230.878C284.49 230.867 284.506 230.854 284.52 230.84C289.691 226.8 294.068 221.834 297.426 216.196L297.428 216.196L297.429 216.195L297.43 216.194L297.43 216.192C297.543 216.012 297.648 215.831 297.753 215.647V215.643C299.129 213.278 300.312 210.806 301.293 208.251V208.248C301.368 208.059 301.436 207.871 301.507 207.683C301.605 207.849 301.699 208.014 301.79 208.18L301.791 208.18L301.792 208.181L301.793 208.182L301.793 208.184C305.442 214.71 305.788 222.572 303.783 229.877Z" fill="#F0F0F0"/>
<path d="M301.793 208.184C301.83 211.667 301.468 215.143 300.714 218.543C300.375 220.1 299.953 221.637 299.45 223.148C298.473 226.104 297.196 228.953 295.639 231.649C295.553 231.796 295.47 231.939 295.38 232.082V232.086C294.714 233.207 293.992 234.295 293.217 235.343C292.043 237.014 290.592 238.471 288.928 239.654C287.569 240.552 286.032 241.146 284.422 241.396C284.121 241.452 283.812 241.494 283.5 241.531C282.255 241.678 280.969 241.734 279.735 241.998C279.11 242.121 278.501 242.317 277.922 242.581C275.935 243.502 274.818 245.432 274.329 247.494C274.243 247.855 274.175 248.22 274.122 248.584C273.712 251.387 274.164 254.298 273.93 257.105C273.904 257.402 273.87 257.703 273.829 258H273.55L273.37 257.586V257.582C273.389 257.424 273.404 257.266 273.419 257.105C273.509 255.726 273.52 254.343 273.453 252.963C273.438 252.342 273.426 251.718 273.434 251.093C273.441 250.593 273.46 250.093 273.498 249.596V249.593C273.524 249.284 273.554 248.979 273.596 248.675C273.715 247.742 273.945 246.826 274.28 245.947C274.607 245.042 275.123 244.216 275.792 243.523C276.461 242.831 277.269 242.288 278.162 241.93C278.708 241.725 279.271 241.568 279.844 241.46C281.104 241.219 282.405 241.159 283.673 241.001C283.809 240.986 283.944 240.967 284.076 240.944C284.245 240.918 284.41 240.888 284.576 240.858C286.235 240.563 287.801 239.884 289.15 238.875C290.753 237.606 292.147 236.093 293.281 234.391C293.897 233.507 294.484 232.605 295.03 231.675C295.03 231.675 295.03 231.674 295.03 231.674C295.03 231.674 295.03 231.673 295.031 231.673C295.031 231.672 295.032 231.672 295.032 231.672C295.033 231.672 295.033 231.672 295.033 231.672C295.06 231.627 295.086 231.585 295.112 231.54L295.116 231.533C297.456 227.534 299.164 223.199 300.18 218.679C300.213 218.513 300.251 218.348 300.289 218.182C300.987 214.919 301.324 211.588 301.293 208.251V208.247C301.293 208.089 301.289 207.935 301.285 207.777C301.278 207.454 301.778 207.382 301.786 207.706C301.789 207.864 301.793 208.022 301.789 208.18C301.79 208.18 301.79 208.18 301.791 208.18C301.791 208.18 301.792 208.181 301.792 208.181C301.793 208.181 301.793 208.182 301.793 208.182C301.793 208.183 301.793 208.183 301.793 208.184Z" fill="white"/>
<path d="M295.165 231.98C296.598 232.708 298.244 232.903 299.808 232.53C301.371 232.156 302.752 231.239 303.702 229.943C303.893 229.679 303.493 229.37 303.302 229.633C302.419 230.842 301.133 231.696 299.677 232.041C298.22 232.386 296.688 232.198 295.357 231.512C295.067 231.363 294.877 231.832 295.165 231.98Z" fill="white"/>
<path d="M284.624 241.008C283.577 237.893 283.742 234.497 285.087 231.498C285.22 231.201 284.752 231.01 284.619 231.307C283.225 234.43 283.061 237.964 284.158 241.203C284.263 241.512 284.729 241.315 284.624 241.008Z" fill="white"/>
<path d="M300.434 218.228C299.821 218.062 299.258 217.746 298.797 217.309C298.336 216.872 297.991 216.327 297.792 215.723C297.692 215.414 297.226 215.611 297.326 215.918C297.548 216.584 297.93 217.186 298.439 217.67C298.947 218.154 299.566 218.506 300.242 218.696C300.304 218.719 300.373 218.718 300.434 218.692C300.496 218.667 300.545 218.619 300.572 218.558C300.597 218.496 300.597 218.427 300.571 218.365C300.545 218.303 300.496 218.254 300.434 218.228Z" fill="white"/>
<path d="M280.848 233.466V233.47C280.732 236.156 280.396 238.828 279.844 241.46V241.464C279.814 241.644 279.772 241.821 279.735 241.998C278.827 246.068 277.554 250.047 275.932 253.888C275.484 254.972 275.015 256.044 274.525 257.105C274.389 257.406 274.25 257.703 274.107 258H273.55L273.37 257.586V257.583L273.159 257.105L273.133 257.048L273.122 257.105L272.915 258H267.536L266.49 257.105L264.966 255.799L267.095 253.475L267.445 253.091L267.498 253.035L267.667 252.85L266.964 249.773L268.378 249.54L266.828 244.759L266.095 242.498L265.91 241.93L264.838 238.623L261.603 239.229L261.077 237.386C262.046 235.138 262.853 232.824 263.492 230.461C263.495 230.442 263.503 230.427 263.507 230.408C265.216 224.042 265.729 217.415 265.019 210.862V210.858C264.996 210.648 264.97 210.433 264.94 210.226V210.219C264.617 207.503 264.074 204.818 263.315 202.191C263.262 201.992 263.202 201.796 263.146 201.601C263.319 201.676 263.488 201.747 263.661 201.823L263.665 201.826H263.672C263.947 201.947 264.221 202.075 264.489 202.21C270.906 205.329 275.627 211.182 278.309 217.93C278.317 217.949 278.324 217.964 278.332 217.983C279.731 221.521 280.565 225.257 280.803 229.054C280.893 230.523 280.908 231.996 280.848 233.466Z" fill="#F0F0F0"/>
<path d="M271.086 258H270.492C270.304 257.695 270.101 257.398 269.898 257.105C269.574 256.65 269.241 256.204 268.897 255.769C268.6 255.393 268.303 255.021 268.006 254.648C267.697 254.261 267.392 253.873 267.095 253.475L267.445 253.091C267.501 253.166 267.558 253.241 267.618 253.317C268.581 254.584 269.623 255.803 270.515 257.105C270.714 257.398 270.906 257.695 271.086 258Z" fill="white"/>
<path d="M263.021 201.811C263.119 201.935 263.22 202.063 263.314 202.191C264.048 203.142 264.741 204.124 265.394 205.136C266.558 206.922 267.591 208.788 268.486 210.722C268.558 210.873 268.629 211.027 268.697 211.181C270.613 215.407 271.862 219.904 272.399 224.513C272.406 224.558 272.41 224.599 272.414 224.644C272.538 225.72 272.618 226.8 272.654 227.883C272.774 229.923 272.573 231.97 272.056 233.947C271.981 234.207 271.898 234.463 271.808 234.711C271.582 235.319 271.298 235.905 270.962 236.46C270.72 236.865 270.451 237.253 270.157 237.622C269.98 237.848 269.796 238.07 269.6 238.284C269.487 238.409 269.37 238.533 269.254 238.657C269.156 238.751 269.062 238.849 268.964 238.943C267.949 239.928 266.828 240.842 265.91 241.93L266.094 242.498C266.978 241.377 268.118 240.447 269.145 239.469C269.789 238.863 270.376 238.198 270.898 237.483C270.965 237.385 271.037 237.288 271.101 237.186C271.449 236.677 271.75 236.137 272 235.572C272.128 235.29 272.244 235 272.35 234.699C272.964 232.755 273.244 230.719 273.177 228.681C273.165 227.375 273.087 226.07 272.944 224.772C272.929 224.603 272.91 224.438 272.888 224.268C272.506 221.179 271.81 218.136 270.811 215.187C269.547 211.447 267.807 207.884 265.635 204.587C265.014 203.643 264.356 202.721 263.66 201.822C263.57 201.698 263.476 201.578 263.378 201.453C263.179 201.198 262.821 201.555 263.021 201.811Z" fill="white"/>
<path d="M272.709 224.82C274.291 224.538 275.723 223.703 276.746 222.464C277.77 221.224 278.32 219.661 278.298 218.053C278.297 217.988 278.27 217.925 278.223 217.879C278.177 217.833 278.114 217.807 278.048 217.806C277.983 217.805 277.919 217.83 277.872 217.875C277.824 217.92 277.796 217.982 277.793 218.047C277.816 219.544 277.303 221 276.348 222.152C275.392 223.305 274.056 224.077 272.58 224.331C272.26 224.386 272.39 224.875 272.709 224.82Z" fill="white"/>
<path d="M269.728 238.374C267.016 236.518 265.104 233.707 264.372 230.503C264.3 230.186 263.811 230.315 263.883 230.632C264.651 233.964 266.647 236.885 269.473 238.811C269.743 238.994 269.996 238.557 269.728 238.374Z" fill="white"/>
<path d="M268.636 210.668C268.047 210.904 267.407 210.991 266.776 210.919C266.145 210.848 265.541 210.621 265.019 210.258C264.752 210.071 264.499 210.509 264.764 210.695C265.342 211.092 266.01 211.343 266.707 211.423C267.404 211.504 268.111 211.412 268.765 211.157C268.828 211.138 268.882 211.095 268.916 211.038C268.949 210.981 268.96 210.913 268.945 210.848C268.928 210.783 268.886 210.728 268.828 210.694C268.77 210.661 268.701 210.651 268.636 210.668Z" fill="white"/>
<path d="M235.002 250.265H231.164L229.338 235.462L235.002 235.463L235.002 250.265Z" fill="#9E616A"/>
<path d="M237.066 257.552H234.343L233.857 254.981L232.612 257.552H225.389C225.043 257.552 224.706 257.442 224.427 257.237C224.148 257.031 223.942 256.742 223.839 256.412C223.736 256.081 223.741 255.727 223.854 255.399C223.967 255.072 224.182 254.789 224.467 254.593L230.235 250.609V248.01L236.301 248.372L237.066 257.552Z" fill="#2F2E41"/>
<path d="M271.274 248.356L267.523 249.17L262.601 235.09L268.136 233.889L271.274 248.356Z" fill="#9E616A"/>
<path d="M274.836 255.04L272.175 255.617L271.155 253.207L270.483 255.984L263.425 257.515C263.086 257.589 262.733 257.552 262.417 257.411C262.101 257.269 261.839 257.031 261.668 256.729C261.497 256.428 261.427 256.08 261.468 255.737C261.509 255.393 261.659 255.071 261.896 254.818L266.688 249.703L266.137 247.163L272.142 246.23L274.836 255.04Z" fill="#2F2E41"/>
<path d="M298.302 257.552C298.303 257.611 298.291 257.67 298.269 257.724C298.246 257.778 298.213 257.828 298.172 257.869C298.13 257.911 298.081 257.944 298.026 257.966C297.972 257.989 297.914 258 297.855 258H192.418C192.299 258 192.186 257.953 192.102 257.869C192.018 257.785 191.97 257.671 191.97 257.552C191.97 257.434 192.018 257.32 192.102 257.236C192.186 257.152 192.299 257.105 192.418 257.105H297.855C297.914 257.105 297.972 257.116 298.026 257.138C298.081 257.161 298.13 257.194 298.172 257.235C298.213 257.277 298.246 257.326 298.269 257.381C298.291 257.435 298.303 257.494 298.302 257.552Z" fill="#CCCCCC"/>
<path d="M223.109 184.141C225.802 198.944 226.475 205.335 226.475 205.335C226.475 205.335 224.455 207.69 225.802 209.036C227.149 210.383 225.802 213.073 225.802 213.073L228.83 245.706L231.268 245.311L237.14 244.366L239.258 244.024L237.911 213.411C237.911 213.411 239.258 210.718 238.584 210.044C237.911 209.371 239.258 205.335 239.258 205.335L240.939 173.375L251.37 208.363C251.37 208.363 250.358 209.71 251.37 210.718C252.378 211.726 254.395 216.774 254.395 216.774L260.598 238.479L261.124 240.323L264.359 239.717L267.88 239.055L268.527 238.935L269.679 238.716L270.42 238.577L270.672 238.532L271.89 238.303L271.522 236.666L271.33 235.805L266.082 212.497L265.962 211.959L265.834 211.391C265.834 211.391 266.507 209.71 265.499 208.698C265.204 208.389 264.989 208.014 264.872 207.604C264.754 207.193 264.739 206.761 264.826 206.343C264.859 206.308 264.889 206.27 264.916 206.23C265.035 206.067 265.117 205.879 265.157 205.681C265.247 205.26 265.168 204.669 264.487 203.988C264.296 203.784 264.135 203.554 264.01 203.303C262.986 201.366 262.471 197.262 262.471 197.262C262.471 197.262 261.561 164.757 258.582 159.792C258.424 159.532 255.261 154.549 255.095 154.448C251.732 152.431 223.981 155.216 223.981 155.216C223.981 155.216 222.394 159.479 222.322 159.923C221.935 162.417 220.825 171.585 223.109 184.141Z" fill="#2F2E41"/>
<path d="M223.267 174.87C223.585 174.523 223.824 174.111 223.966 173.661C224.108 173.212 224.15 172.737 224.089 172.27C224.028 171.803 223.865 171.355 223.612 170.958C223.359 170.561 223.021 170.224 222.624 169.971L225.265 158.828L219.676 160.87L218.025 171.138C217.644 171.834 217.532 172.646 217.709 173.419C217.887 174.192 218.342 174.873 218.988 175.333C219.634 175.793 220.427 175.999 221.215 175.914C222.004 175.829 222.734 175.457 223.267 174.87Z" fill="#9E616A"/>
<path d="M227.735 107.027C227.735 107.027 230.503 102.903 235.95 97.4551C238.834 96.4937 243.832 97.054 245.564 97.4551C253.575 108.03 254.079 107.327 256.165 113.236C256.705 114.768 256.976 116.24 256.735 117.442C255.774 122.248 257.315 146.535 257.636 147.817C257.956 149.099 260.199 150.701 257.956 150.701C255.713 150.701 221.745 149.419 222.386 148.458C223.027 147.496 227.735 107.027 227.735 107.027Z" fill="#E6E7E8"/>
<path d="M230.939 107.027H227.735C227.735 107.027 224.21 109.591 224.53 112.475C224.851 115.359 221.005 140.354 221.005 143.558C221.005 146.763 219.724 147.724 219.724 149.647C219.724 151.57 220.365 152.851 219.724 153.813C219.083 154.774 217.801 160.542 218.121 162.785C218.308 164.275 218.308 165.782 218.121 167.272H223.889C223.889 167.272 229.658 147.724 230.939 146.763C231.489 146.343 231.945 145.812 232.276 145.205C232.607 144.598 232.807 143.928 232.862 143.238C232.862 142.277 232.221 142.277 233.823 140.995C235.426 139.713 234.464 133.945 234.464 133.945L236.707 128.177L230.939 107.027Z" fill="#E6E7E8"/>
<path d="M237.521 93.3536C242.646 93.3536 246.8 89.1991 246.8 84.0744C246.8 78.9497 242.646 74.7952 237.521 74.7952C232.397 74.7952 228.242 78.9497 228.242 84.0744C228.242 89.1991 232.397 93.3536 237.521 93.3536Z" fill="#9E616A"/>
<path d="M231.022 101.464L230.151 97.6488C229.865 96.372 229.838 95.0509 230.07 93.7633C230.302 92.4757 230.79 91.2476 231.504 90.1514C232.161 89.1179 232.526 87.9267 232.563 86.703C232.6 85.4792 232.307 84.2682 231.714 83.197C230.704 81.3591 228.962 80.2617 227.054 80.2617H226.822V80.03C226.822 76.7027 229.415 74.3542 231.826 74.2196C231.913 73.5272 232.404 72.9066 233.259 72.4137C235.3 71.2369 239.246 70.9817 242.228 72.5502C242.283 72.043 242.475 71.5603 242.782 71.153C243.089 70.7458 243.501 70.4293 243.974 70.2371C244.463 70.0667 244.991 70.0364 245.497 70.1495C245.541 69.3153 245.885 68.5252 246.467 67.9257C247.29 67.1279 248.611 66.8247 250.091 67.0921C252.123 67.461 254.126 68.7557 255.731 70.7382C257.154 72.4959 258.142 74.5674 259.098 76.5705C260.037 78.5406 261.009 80.5777 262.417 82.3026C263.96 84.1922 265.871 85.4165 267.799 85.75C270.048 86.1392 272.356 85.2133 273.412 83.4991L273.622 83.1588L273.813 83.5099C275 85.6903 274.514 88.6863 272.659 90.6336C270.995 92.3801 268.383 93.2698 265.676 93.0114C263.383 92.7935 261.071 91.8192 258.803 90.1161C256.55 88.4245 255.157 86.5546 254.662 84.5583C254.524 83.9406 254.425 83.3147 254.365 82.6845C254.211 81.3645 254.067 80.1175 253.255 79.1998C252.525 78.3746 251.395 78.0171 250.394 77.7469L250.197 77.6942C250.161 78.066 250.045 78.4255 249.856 78.7476C249.667 79.0697 249.41 79.3468 249.103 79.5593C248.918 79.6703 248.716 79.7482 248.505 79.7897C249.666 84.4632 249.189 88.0414 247.084 90.427C243.533 94.4543 236.708 93.626 236.419 93.5891L236.227 93.5642L236.217 93.3707C236.191 92.8515 236.128 92.3349 236.027 91.8249C235.05 94.1801 231.761 100.408 231.322 101.036L231.022 101.464Z" fill="#2F2E41"/>
</g>
<defs>
<clipPath id="clip0_176_1358">
<rect width="305" height="258" fill="white"/>
</clipPath>
</defs>
</svg>
