<svg width="338" height="170" viewBox="0 0 338 170" fill="none" xmlns="http://www.w3.org/2000/svg">
<g clip-path="url(#clip0_176_1415)">
<path d="M111.31 170C101.111 170 90.9277 169.817 80.7593 169.45C66.2299 168.927 51.2058 168.386 37.2414 160.615C27.4727 155.179 18.821 146.459 12.2219 135.395C7.81119 127.896 4.57705 119.761 2.63309 111.275C-0.993134 95.8244 -0.86962 79.7266 2.99325 64.3343C4.34694 59.0569 6.21311 53.9254 8.56495 49.0134C18.7486 27.8551 37.3228 13.6521 59.5252 10.0465C59.7085 10.0226 59.8939 10.0187 60.0782 10.0347C60.178 10.04 60.2775 10.0458 60.379 10.0415L60.5097 9.99984C60.8445 9.88307 61.1885 9.7945 61.538 9.73505C95.7799 4.62051 131.979 14.969 166.218 39.6611C192.692 58.7555 227.777 69.0375 273.479 71.0947L274.128 71.1288C286.85 71.8621 299.156 77.1246 309.718 86.3482C320.142 95.4518 327.969 107.598 332.352 121.474C332.891 123.165 333.385 124.926 333.82 126.707C334.225 128.362 334.197 130.095 333.737 131.735C333.277 133.376 332.402 134.87 331.197 136.07V136.074L331.083 136.191C330.809 136.464 330.521 136.727 330.226 136.971L329.879 137.257C326.959 139.671 324.652 141.578 321.891 143.059C320.05 144.04 318.091 144.782 316.063 145.267C304.926 147.991 293.616 150.517 282.448 152.774C260.758 157.162 238.497 160.782 216.283 163.532C181.457 167.84 146.4 170.001 111.31 170ZM59.8185 10.784C59.7503 10.7834 59.6821 10.788 59.6146 10.7979C37.6198 14.3698 19.2214 28.4334 9.13877 49.3822C6.81013 54.2455 4.96244 59.3262 3.6222 64.5513C-0.205465 79.8071 -0.327443 95.7619 3.26653 111.075C5.19145 119.48 8.39424 127.537 12.7624 134.965C19.2969 145.92 27.8601 154.553 37.5264 159.931C51.3654 167.632 66.3187 168.171 80.7798 168.692C126.009 170.313 171.295 168.336 216.213 162.778C238.413 160.029 260.659 156.412 282.335 152.027C293.496 149.771 304.798 147.247 315.927 144.525C317.906 144.052 319.818 143.328 321.615 142.371C324.32 140.92 326.605 139.031 329.497 136.64L329.844 136.354C330.097 136.144 330.346 135.92 330.584 135.686L330.652 135.615C333.029 133.211 333.954 130.039 333.188 126.913V126.913C332.758 125.151 332.269 123.409 331.735 121.735C322.781 93.3891 299.618 73.3571 274.096 71.8865L273.451 71.8525C252.575 70.9125 234.307 68.3091 217.605 63.8924C197.667 58.6203 180.261 50.684 165.87 40.3044C131.761 15.7069 95.714 5.39692 61.6217 10.4872C61.3032 10.5423 60.9899 10.6238 60.6848 10.7309L60.4494 10.797C60.3156 10.803 60.1816 10.8014 60.048 10.7922C59.9693 10.7881 59.893 10.784 59.8185 10.784Z" fill="#F0F0F0"/>
<path d="M105.577 55.388C104.633 54.4792 103.667 49.4109 102.462 48.8963C103.363 50.8943 102.709 51.4233 102.704 53.616C102.715 54.8611 102.57 56.1027 102.273 57.3115H81.8531V41.3227C81.8531 39.886 82.1351 38.4635 82.683 37.1362C83.231 35.8089 84.0341 34.6029 85.0466 33.587C86.0591 32.5712 87.2611 31.7653 88.584 31.2156C89.9069 30.6658 91.3248 30.3829 92.7567 30.3829C93.3032 30.3936 93.8462 30.4734 94.3728 30.6203C96.128 31.0958 97.7276 32.0259 99.0114 33.3174C100.295 34.609 101.218 36.2165 101.687 37.9788C103.243 43.6875 105.719 53.19 105.577 55.388Z" fill="#2F2E41"/>
<path d="M83.0513 75.0573L83.0614 62.595L75.7599 63.2496L78.3367 71.1096L77.1307 90.8659C76.5458 90.9976 76.0117 91.2972 75.5936 91.7282C75.1754 92.1591 74.8913 92.7029 74.7759 93.293C74.6604 93.8832 74.7186 94.4944 74.9433 95.052C75.1681 95.6096 75.5496 96.0895 76.0415 96.4332C76.5334 96.777 77.1144 96.9697 77.7136 96.9879C78.3128 97.0061 78.9043 96.849 79.416 96.5358C79.9278 96.2225 80.3376 95.7666 80.5955 95.2237C80.8535 94.6808 80.9484 94.0743 80.8688 93.4782L83.0513 75.0573Z" fill="#FFB6B6"/>
<path d="M97.4204 164.114L100.37 164.113L101.774 152.698H97.4197L97.4204 164.114Z" fill="#FFB6B6"/>
<path d="M96.4213 162.654L101.084 162.374V164.379L105.518 167.451C105.737 167.602 105.902 167.82 105.988 168.073C106.075 168.325 106.079 168.599 106 168.854C105.921 169.109 105.763 169.331 105.548 169.49C105.334 169.648 105.075 169.733 104.809 169.733H99.257L98.3001 167.75L97.9265 169.733H95.8334L96.4213 162.654Z" fill="#2F2E41"/>
<path d="M80.3641 164.114L83.3142 164.113L84.7172 152.698H80.3638L80.3641 164.114Z" fill="#FFB6B6"/>
<path d="M79.3653 162.654L84.0284 162.374V164.379L88.4617 167.451C88.6806 167.602 88.8456 167.82 88.9323 168.073C89.0191 168.325 89.0232 168.599 88.944 168.854C88.8648 169.109 88.7065 169.331 88.4921 169.49C88.2778 169.648 88.0186 169.733 87.7525 169.733H82.201L81.2441 167.75L80.8705 169.733H78.7773L79.3653 162.654Z" fill="#2F2E41"/>
<path d="M94.7936 49.1367L88.6828 49.257L84.3693 53.8252L80.9111 54.3341C79.3468 54.5643 77.9086 55.3262 76.837 56.4925C75.7653 57.6589 75.1252 59.1589 75.0234 60.7419L75.6225 64.0436H79.2171L81.2966 76.2937C80.488 78.3609 80.433 79.9926 82.0928 80.6335L87.245 90.3711L102.462 83.5188C103.234 82.1876 103.481 80.8506 102.692 79.5505L103.78 60.7978H107.438C107.438 57.2904 106.255 54.3336 102.781 53.9433C101.402 53.7935 100.015 53.714 98.6278 53.705L94.7936 49.1367Z" fill="#E6E6E6"/>
<path d="M102.462 83.5188C102.462 83.5188 87.6045 86.1635 82.0928 80.6336C82.0928 80.6336 81.5333 81.5867 80.6901 83.1674C80.4476 83.6219 79.9793 83.9299 79.6965 84.4805C79.4394 84.9809 78.7783 85.5962 78.4983 86.1637C78.273 86.6203 78.6344 87.217 78.4 87.7103C75.5774 93.6503 72.2796 102.029 72.9866 107.562C73.4425 111.13 74.3842 119.433 75.3759 128.35C75.4534 129.047 74.8258 129.942 74.9037 130.644C74.9771 131.306 75.7561 131.775 75.8295 132.439C75.8783 132.88 75.3343 133.329 75.383 133.769C75.4363 134.252 76.0823 134.726 76.1354 135.207C77.494 147.52 78.7379 159.015 78.7379 159.015H85.6874L86.9987 132.761L85.9271 123.19L88.4433 103.835L91.918 122.229L92.365 132.58L96.0372 159.496H102.462V133.44L102.941 132.086L102.462 130.35L102.941 128.48L102.462 126.443V83.5188Z" fill="#2F2E41"/>
<path d="M96.6692 45.5813C95.7226 46.8429 94.376 47.7435 92.8512 48.1346C91.3263 48.5258 89.7142 48.3843 88.2802 47.7334C86.8462 47.0825 85.6759 45.961 84.9621 44.5536C84.2482 43.1463 84.0333 41.537 84.3529 39.9907C84.6724 38.4445 85.5072 37.0535 86.7199 36.0469C87.9326 35.0403 89.4508 34.478 91.0245 34.4528C92.5982 34.4275 94.1335 34.9407 95.3777 35.9079C96.6219 36.875 97.5006 38.2385 97.8693 39.7737C97.8892 39.857 97.906 39.9398 97.9224 40.0258C98.1171 40.9881 98.106 41.9808 97.89 42.9385C97.674 43.8962 97.2579 44.7969 96.6692 45.5813Z" fill="#FFB6B6"/>
<path d="M95.2249 41.616C95.078 40.8761 94.7063 40.1999 94.161 39.6805C94.2148 40.3896 94.1167 41.102 93.8734 41.7699C92.0516 41.9317 90.2217 41.568 88.599 40.7216C87.3768 39.8897 85.8216 39.9618 84.0099 40.7216C84.0098 39.8375 84.1833 38.962 84.5204 38.1452C84.8576 37.3283 85.3518 36.5862 85.9749 35.961C86.598 35.3358 87.3377 34.84 88.1519 34.5017C88.966 34.1634 89.8386 33.9893 90.7198 33.9894H91.918C93.6974 33.9898 95.4039 34.6992 96.6622 35.9616C97.9205 37.2241 98.6275 38.9362 98.6278 40.7216C97.522 41.1195 96.3832 41.4188 95.2249 41.616Z" fill="#2F2E41"/>
<path d="M42.8048 127.42C53.451 127.42 62.0813 118.761 62.0813 108.079C62.0813 97.3978 53.451 88.7387 42.8048 88.7387C32.1587 88.7387 23.5283 97.3978 23.5283 108.079C23.5283 118.761 32.1587 127.42 42.8048 127.42Z" fill="#F0F0F0"/>
<path d="M165.645 38.681C176.291 38.681 184.922 30.022 184.922 19.3405C184.922 8.65903 176.291 0 165.645 0C154.999 0 146.369 8.65903 146.369 19.3405C146.369 30.022 154.999 38.681 165.645 38.681Z" fill="#F0F0F0"/>
<path d="M318.724 130.454C329.37 130.454 338 121.795 338 111.113C338 100.432 329.37 91.7726 318.724 91.7726C308.077 91.7726 299.447 100.432 299.447 111.113C299.447 121.795 308.077 130.454 318.724 130.454Z" fill="#F0F0F0"/>
<path d="M200.419 21.4497V65.3056C200.419 66.2165 200.061 67.0907 199.422 67.7383C198.783 68.3858 197.916 68.7543 197.008 68.7638C196.995 68.7652 196.983 68.7657 196.97 68.7654H191.883C187.812 68.7654 183.908 67.143 181.03 64.2551C178.152 61.3673 176.535 57.4505 176.535 53.3664V21.4497C176.535 20.5321 176.898 19.652 177.545 19.0032C178.191 18.3544 179.069 17.9898 179.983 17.9898H182.045C181.09 20.785 194.051 21.9618 194.763 17.9898H196.97C197.885 17.9898 198.762 18.3544 199.409 19.0032C200.055 19.6521 200.419 20.5321 200.419 21.4497Z" fill="#5E7AA0"/>
<path d="M185.321 14.7104C185.322 14.5902 185.369 14.475 185.454 14.39C185.539 14.305 185.654 14.2572 185.773 14.257H188.846C188.966 14.2574 189.081 14.3053 189.165 14.3903C189.25 14.4753 189.297 14.5904 189.297 14.7104C189.297 14.8305 189.25 14.9456 189.165 15.0306C189.081 15.1156 188.966 15.1635 188.846 15.1639H185.773C185.654 15.1637 185.539 15.1159 185.454 15.0309C185.369 14.9459 185.322 14.8307 185.321 14.7104Z" fill="#3F3D56"/>
<path d="M198.026 74.3282H178.592C177.085 74.3265 175.639 73.7248 174.573 72.6551C173.507 71.5855 172.907 70.1352 172.905 68.6224V37.9653C172.799 37.8884 172.712 37.7871 172.652 37.6698C172.592 37.5525 172.561 37.4226 172.561 37.2908V34.2075C172.561 34.0757 172.592 33.9458 172.652 33.8285C172.712 33.7112 172.799 33.61 172.905 33.5331V32.7056C172.799 32.6288 172.712 32.5275 172.652 32.4102C172.592 32.2929 172.561 32.163 172.561 32.0312V28.9478C172.561 28.816 172.592 28.6861 172.652 28.5688C172.712 28.4515 172.799 28.3503 172.905 28.2734V26.7778C172.774 26.7068 172.663 26.6012 172.587 26.4723C172.51 26.3434 172.47 26.1961 172.47 26.046V22.9628C172.47 22.8127 172.51 22.6653 172.587 22.5364C172.663 22.4075 172.774 22.3018 172.905 22.2308V18.1326C172.907 16.6199 173.507 15.1696 174.573 14.0999C175.639 13.0303 177.085 12.4286 178.592 12.4269H198.026C199.534 12.4286 200.979 13.0303 202.045 14.0999C203.112 15.1696 203.711 16.6199 203.713 18.1327V27.0657C203.815 27.13 203.9 27.2194 203.958 27.3254C204.017 27.4314 204.048 27.5506 204.048 27.6718V33.5509C204.048 33.6721 204.017 33.7914 203.958 33.8974C203.9 34.0034 203.815 34.0928 203.713 34.1571V68.6224C203.711 70.1351 203.112 71.5854 202.045 72.6551C200.979 73.7248 199.534 74.3265 198.026 74.3282ZM178.592 13.1853C177.285 13.1868 176.032 13.7085 175.107 14.636C174.183 15.5635 173.663 16.821 173.661 18.1327V22.8759L173.298 22.89C173.279 22.8907 173.261 22.8986 173.248 22.9122C173.234 22.9257 173.227 22.9438 173.226 22.9628V26.046C173.227 26.065 173.234 26.083 173.248 26.0966C173.261 26.1101 173.279 26.118 173.298 26.1188L173.661 26.1327V28.8059L173.374 28.877C173.358 28.8809 173.344 28.8899 173.333 28.9027C173.323 28.9155 173.317 28.9314 173.317 28.9478V32.0312C173.317 32.0476 173.323 32.0635 173.333 32.0763C173.344 32.0891 173.358 32.0981 173.374 32.102L173.661 32.1731V34.0657L173.374 34.1368C173.358 34.1406 173.344 34.1496 173.333 34.1624C173.323 34.1752 173.317 34.1911 173.317 34.2075V37.2907C173.317 37.3072 173.323 37.3231 173.333 37.3359C173.343 37.3487 173.358 37.3578 173.374 37.3617L173.661 37.4328V68.6224C173.663 69.9341 174.183 71.1916 175.107 72.1191C176.032 73.0466 177.285 73.5683 178.592 73.5697H198.026C199.333 73.5682 200.587 73.0465 201.511 72.119C202.436 71.1915 202.956 69.934 202.957 68.6224V33.5078H203.292V27.7151H202.957V18.1326C202.956 16.821 202.436 15.5635 201.511 14.636C200.587 13.7085 199.333 13.1868 198.026 13.1853L178.592 13.1853Z" fill="#3F3D56"/>
<path d="M190.564 15.1639C190.813 15.1639 191.016 14.9609 191.016 14.7104C191.016 14.46 190.813 14.257 190.564 14.257C190.314 14.257 190.112 14.46 190.112 14.7104C190.112 14.9609 190.314 15.1639 190.564 15.1639Z" fill="#3F3D56"/>
<path d="M92.2552 102.544H41.6876C40.9694 102.542 40.2813 102.255 39.7734 101.745C39.2656 101.236 38.9795 100.545 38.9775 99.825V75.1037C38.9794 74.3832 39.2654 73.6927 39.7732 73.1832C40.2809 72.6737 40.9691 72.3866 41.6872 72.3846H92.2548C92.9729 72.3865 93.6611 72.6735 94.1689 73.1829C94.6767 73.6924 94.9629 74.3828 94.9648 75.1033V99.8246C94.963 100.545 94.6769 101.236 94.1692 101.745C93.6614 102.255 92.9733 102.542 92.2552 102.544Z" fill="white"/>
<path d="M92.2552 102.544H41.6876C40.9694 102.542 40.2813 102.255 39.7734 101.745C39.2656 101.236 38.9795 100.545 38.9775 99.825V75.1037C38.9794 74.3832 39.2654 73.6927 39.7732 73.1832C40.2809 72.6737 40.9691 72.3866 41.6872 72.3846H92.2548C92.9729 72.3865 93.6611 72.6735 94.1689 73.1829C94.6767 73.6924 94.9629 74.3828 94.9648 75.1033V99.8246C94.963 100.545 94.6769 101.236 94.1692 101.745C93.6614 102.255 92.9733 102.542 92.2552 102.544ZM41.6876 73.1431C41.1697 73.1446 40.6735 73.3518 40.3074 73.7192C39.9412 74.0866 39.7349 74.5845 39.7335 75.104V99.8246C39.735 100.344 39.9414 100.842 40.3076 101.209C40.6738 101.577 41.1701 101.784 41.6879 101.785H92.2544C92.7724 101.784 93.2687 101.577 93.6349 101.209C94.0011 100.842 94.2075 100.344 94.2089 99.8242V75.1037C94.2074 74.5841 94.0009 74.0863 93.6347 73.7189C93.2685 73.3516 92.7723 73.1446 92.2544 73.1431L41.6876 73.1431Z" fill="#3F3D56"/>
<path d="M69.6815 98.8902C59.7085 98.8902 49.3094 98.7946 45.4293 98.7326C44.9188 98.722 44.4327 98.5117 44.0747 98.1464C43.7167 97.7811 43.5152 97.2899 43.5132 96.7776V76.314C43.5134 76.1305 43.586 75.9546 43.7151 75.8248C43.8442 75.6949 44.0194 75.6216 44.2022 75.6209H89.7385C89.9213 75.6212 90.0966 75.694 90.226 75.8235C90.3555 75.9531 90.4285 76.1287 90.4292 76.3122V90.1964C90.4207 92.4628 89.5271 94.6355 87.9403 96.2486C86.3535 97.8616 84.1997 98.7864 81.9411 98.8246C78.3249 98.8718 74.0429 98.8902 69.6815 98.8902Z" fill="#5E7AA0"/>
<path d="M87.0355 88.9208H45.8899C45.5454 88.9198 45.2095 88.8125 44.9279 88.6133C44.6463 88.4141 44.4327 88.1328 44.316 87.8076L39.6589 74.6991C39.5692 74.4463 39.5412 74.1755 39.5774 73.9096C39.6135 73.6437 39.7127 73.3904 39.8667 73.1709C40.0207 72.9515 40.2249 72.7723 40.4622 72.6484C40.6995 72.5246 40.9629 72.4596 41.2304 72.4591L92.6617 72.3873C92.9062 72.387 93.1478 72.4406 93.3694 72.5441C93.591 72.6477 93.7873 72.7988 93.9444 72.9867C94.1015 73.1747 94.2156 73.3949 94.2787 73.6319C94.3418 73.8689 94.3523 74.1169 94.3095 74.3584L94.3491 74.3752L94.2015 74.7209L94.2 74.7245L88.5702 87.9046C88.4419 88.2063 88.228 88.4635 87.9552 88.6442C87.6823 88.8249 87.3625 88.9211 87.0355 88.9208ZM92.6641 73.1457L41.2319 73.2176C41.0853 73.2178 40.941 73.2534 40.811 73.3212C40.681 73.389 40.5691 73.4872 40.4848 73.6074C40.4004 73.7276 40.3461 73.8664 40.3263 74.012C40.3064 74.1577 40.3218 74.306 40.3709 74.4445L45.0278 87.5524C45.0918 87.7306 45.209 87.8847 45.3633 87.9938C45.5176 88.103 45.7016 88.1618 45.8904 88.1623H87.0355C87.2145 88.1625 87.3895 88.1098 87.5388 88.0109C87.6881 87.912 87.8051 87.7712 87.8753 87.6061L93.5053 74.4256C93.565 74.2859 93.5892 74.1336 93.5757 73.9823C93.5623 73.8309 93.5116 73.6853 93.4282 73.5584C93.3448 73.4316 93.2314 73.3275 93.098 73.2554C92.9647 73.1834 92.8156 73.1457 92.6641 73.1457Z" fill="#3F3D56"/>
<path d="M66.8944 91.7741C68.6738 91.7741 70.1163 90.3269 70.1163 88.5416C70.1163 86.7563 68.6738 85.3091 66.8944 85.3091C65.1151 85.3091 63.6726 86.7563 63.6726 88.5416C63.6726 90.3269 65.1151 91.7741 66.8944 91.7741Z" fill="white"/>
<path d="M188.601 63.7115C190.38 63.7115 191.823 62.2642 191.823 60.479C191.823 58.6937 190.38 57.2464 188.601 57.2464C186.822 57.2464 185.379 58.6937 185.379 60.479C185.379 62.2642 186.822 63.7115 188.601 63.7115Z" fill="white"/>
<path d="M310.457 107.366L301.851 98.8413C301.432 98.4231 300.935 98.0918 300.388 97.8667C299.841 97.6415 299.256 97.5268 298.665 97.5292H298.634C298.039 97.5309 297.45 97.6511 296.901 97.8829C296.352 98.1146 295.854 98.4533 295.437 98.8793C293.512 100.833 292.418 103.46 292.383 106.206C292.349 108.953 293.377 111.606 295.251 113.608C295.342 113.707 295.437 113.802 295.531 113.897C296.055 114.419 296.632 114.883 297.255 115.281C298.956 116.384 300.94 116.967 302.966 116.961H303.03C304.42 116.956 305.796 116.675 307.077 116.133C308.359 115.592 309.52 114.8 310.495 113.806C311.34 112.946 311.81 111.785 311.803 110.578C311.796 109.371 311.312 108.216 310.457 107.366ZM309.958 113.271C308.36 114.886 306.256 115.899 304.001 116.139C301.746 116.38 299.476 115.833 297.576 114.591C297.032 114.23 296.525 113.817 296.06 113.358C294.206 111.52 293.155 109.019 293.139 106.404C293.122 103.789 294.142 101.275 295.973 99.414C296.322 99.058 296.737 98.7752 297.195 98.5818C297.653 98.3884 298.145 98.2884 298.642 98.2877H298.665C299.157 98.2859 299.644 98.3815 300.1 98.5689C300.555 98.7563 300.969 99.0319 301.318 99.3798L309.924 107.909C310.637 108.616 311.041 109.577 311.047 110.583C311.053 111.588 310.662 112.555 309.958 113.271Z" fill="#3F3D56"/>
<path d="M282.219 79.3871L273.613 70.8583C272.766 70.015 271.62 69.5431 270.426 69.5462H270.4C269.804 69.5486 269.214 69.6694 268.664 69.9018C268.115 70.1342 267.617 70.4734 267.198 70.9C265.608 72.521 264.576 74.6107 264.255 76.8628C263.934 79.1149 264.34 81.4109 265.414 83.4144L265.418 83.4182C265.861 84.2377 266.412 84.994 267.055 85.667C267.127 85.7504 267.21 85.8339 267.293 85.9173C269.269 87.8856 271.943 88.9875 274.728 88.9814H274.796C276.186 88.9756 277.562 88.6935 278.843 88.1513C280.124 87.6091 281.286 86.8176 282.261 85.8225C282.679 85.3972 283.01 84.8934 283.234 84.3398C283.459 83.7862 283.572 83.1937 283.568 82.5961C283.565 81.9985 283.443 81.4075 283.212 80.8569C282.98 80.3063 282.643 79.8069 282.219 79.3871ZM281.72 85.2916C280.815 86.215 279.737 86.9495 278.548 87.4526C277.359 87.9557 276.082 88.2176 274.792 88.223H274.728C272.79 88.2223 270.895 87.6465 269.282 86.5683C267.669 85.49 266.41 83.9573 265.663 82.163C264.916 80.3687 264.715 78.3928 265.084 76.4839C265.453 74.575 266.377 72.8183 267.739 71.4347C268.444 70.7199 269.402 70.3149 270.404 70.3085C271.406 70.3021 272.37 70.6948 273.083 71.4006L281.69 79.9256C282.402 80.6338 282.805 81.5964 282.811 82.6023C282.816 83.6082 282.424 84.5753 281.72 85.2916Z" fill="#3F3D56"/>
<path d="M311.007 110.047L301.519 100.644C300.897 100.029 300.057 99.6866 299.183 99.692C298.31 99.6974 297.474 100.05 296.86 100.673C296.091 101.452 295.483 102.376 295.07 103.391C294.657 104.406 294.448 105.493 294.454 106.59C294.46 107.686 294.682 108.77 295.106 109.781C295.53 110.791 296.149 111.708 296.926 112.478C297.704 113.249 298.625 113.858 299.637 114.271C300.649 114.684 301.733 114.893 302.826 114.885C303.918 114.878 304.999 114.654 306.006 114.228C307.012 113.801 307.925 113.179 308.692 112.398L311.007 110.047Z" fill="#5E7AA0"/>
<path d="M282.771 82.0657L273.283 72.6634C272.66 72.0482 271.82 71.7058 270.947 71.7112C270.073 71.7167 269.238 72.0695 268.623 72.6924C267.854 73.4716 267.246 74.3952 266.834 75.4104C266.421 76.4255 266.211 77.5124 266.218 78.6088C266.224 79.7051 266.445 80.7895 266.869 81.8C267.294 82.8104 267.912 83.727 268.69 84.4975C269.467 85.2679 270.388 85.8771 271.401 86.2901C272.413 86.703 273.496 86.9118 274.589 86.9044C275.682 86.897 276.762 86.6735 277.769 86.2469C278.776 85.8202 279.689 85.1986 280.456 84.4177L282.771 82.0657Z" fill="#5E7AA0"/>
<path d="M300.581 115.903L300.354 116.502C299.288 116.096 298.255 115.689 297.255 115.281C279.535 108.026 271.076 99.5353 265.418 83.4182L265.414 83.4144C265.146 82.656 264.885 81.8798 264.632 81.086L265.229 80.8926C265.429 81.656 265.721 82.3921 266.099 83.0845C266.409 83.9681 266.727 84.8289 267.055 85.667C272.373 99.2698 280.216 107.044 295.251 113.608C296.007 113.938 296.782 114.266 297.576 114.591C298.498 115.193 299.513 115.637 300.581 115.903Z" fill="#3F3D56"/>
<path d="M273.455 88.2911L272.924 88.8309L292.555 108.284L293.086 107.745L273.455 88.2911Z" fill="#3F3D56"/>
<path d="M107.255 72.1721L107.265 59.7097L99.9633 60.3644L102.54 68.2244L93.1865 82.4507C92.6016 82.5824 92.0675 82.882 91.6494 83.313C91.2312 83.7439 90.9471 84.2877 90.8316 84.8778C90.7162 85.468 90.7744 86.0792 90.9991 86.6367C91.2238 87.1943 91.6054 87.6743 92.0973 88.018C92.5892 88.3618 93.1702 88.5545 93.7694 88.5727C94.3685 88.5909 94.96 88.4338 95.4718 88.1206C95.9835 87.8073 96.3933 87.3514 96.6513 86.8085C96.9093 86.2656 97.0042 85.6591 96.9246 85.063L107.255 72.1721Z" fill="#FFB6B6"/>
</g>
<defs>
<clipPath id="clip0_176_1415">
<rect width="338" height="170" fill="white"/>
</clipPath>
</defs>
</svg>
